# xmcd
#
# Track frame offsets:
#	150
#	20722
#	38263
#	60483
#	84971
#	109714
#	134449
#	171715
#	210568
#	224773
#	241084
#	278822
#	316970
#
# Disc length: 4442 seconds
#
# Revision: 1
# Processed by: cddbd v1.5.2PL0 Copyright (c) Steve Scherf et al.
# Submitted via: audiograbber 1.83.01
#
DISCID=b611580d
DTITLE=Henrik Freischlader - Recorded by Martin Meinschäfer
DYEAR=2010
DGENRE=Blues
TTITLE0=I
TTITLE1=Got it made
TTITLE2=So damn cool
TTITLE3=You will come
TTITLE4=Breakout
TTITLE5=In your arms
TTITLE6=The bridge
TTITLE7=Cry again
TTITLE8=The wrong way
TTITLE9=Never be true
TTITLE10=Desert Love
TTITLE11=Bad dreams
TTITLE12=Your love of mine
EXTD=
EXTT0=
EXTT1=
EXTT2=
EXTT3=
EXTT4=
EXTT5=
EXTT6=
EXTT7=
EXTT8=
EXTT9=
EXTT10=
EXTT11=
EXTT12=
PLAYORDER=
